# xmcd CD database file
#
# Track frame offsets:
#	150
#	15615
#	29407
#	44768
#	60385
#	72832
#	84803
#	97239
#	110515
#	125191
#	138256
#	153505
#	165738
#	177865
#	191896
#	207637
#	223235
#	238525
#	252253
#	266266
#	281801
#	295854
#
# Disc length: 4124 seconds
#
# Revision: 0
# Processed by: cddbd v1.5.2PL0 Copyright (c) Steve Scherf et al.
# Submitted via: CDex 1.70beta2
#
DISCID=54101a16
DTITLE=Various Artist - Jazz Roads CD186 - Swing - All-Star Groups Vol.1 (1933-37)
DYEAR=2006
DGENRE=Jazz
TTITLE0=The Chocolate Dandies - Blue Interlude
TTITLE1=The Chocolate Dandies - I Never Knew
TTITLE2=The Chocolate Dandies - Once Upon A Time
TTITLE3=The Chocolate Dandies - Krazy Kapers
TTITLE4=Red Norvo And His Swing Octet - Honeysuckle Rose 
TTITLE5=Red Norvo And His Swing Octet - With All My Heart And Soul 
TTITLE6=Red Norvo And His Swing Octet - Bughouse 
TTITLE7=Red Norvo And His Swing Octet - Blues In E Flat 
TTITLE8=Gene Gifford And His Orchestra - Nothin' But The Blues 
TTITLE9=Gene Gifford And His Orchestra - New Orleans Twist 
TTITLE10=Gene Gifford And His Orchestra - Squareface 
TTITLE11=Gene Gifford And His Orchestra - Dizzy Glide 
TTITLE12=Mildred Bailey And Her Swing Band - I'd Love To Take Orders From You 
TTITLE13=Mildred Bailey And Her Swing Band - I'd Rather Listen To Your Eyes 
TTITLE14=Mildred Bailey And Her Swing Band - Someday Sweetheart 
TTITLE15=Mildred Bailey And Her Swing Band - When Day Is Done 
TTITLE16=Mildred Bailey And Her Alley Cats - Willow Tree
TTITLE17=Mildred Bailey And Her Alley Cats - Honeysuckle Rose 
TTITLE18=Mildred Bailey And Her Alley Cats - Squeeze Me
TTITLE19=Mildred Bailey And Her Alley Cats - Down-Hearted Blues
TTITLE20=A Jam Session At Victor's (Rca All Stars) - Honeysuckle Rose 
TTITLE21=A Jam Session At Victor's (Rca All Stars) - Blues 
EXTD=YEAR: 2006
EXTT0=
EXTT1=
EXTT2=
EXTT3=
EXTT4=
EXTT5=
EXTT6=
EXTT7=
EXTT8=
EXTT9=
EXTT10=
EXTT11=
EXTT12=
EXTT13=
EXTT14=
EXTT15=
EXTT16=
EXTT17=
EXTT18=
EXTT19=
EXTT20=
EXTT21=
PLAYORDER=
